<?xml version="1.0" encoding="utf-8"?>
<!-- Generator: Adobe Illustrator 24.0.3, SVG Export Plug-In . SVG Version: 6.00 Build 0)  -->
<svg version="1.1" id="Layer_1" xmlns="http://www.w3.org/2000/svg" xmlns:xlink="http://www.w3.org/1999/xlink" x="0px" y="0px"
	 viewBox="0 0 612 612" style="enable-background:new 0 0 612 612;" xml:space="preserve">
<style type="text/css">
	.st0{fill:#FFFFFF;}
	.st1{fill:url(#SVGID_1_);}
	.st2{fill:url(#SVGID_2_);}
	.st3{fill:url(#SVGID_3_);}
	.st4{fill:url(#SVGID_4_);}
	.st5{fill:url(#SVGID_5_);}
	.st6{fill:url(#SVGID_6_);}
	.st7{fill:url(#SVGID_7_);}
	.st8{fill:url(#SVGID_8_);}
	.st9{fill:url(#SVGID_9_);}
	.st10{fill:url(#SVGID_10_);}
	.st11{fill:url(#SVGID_11_);}
	.st12{fill:url(#SVGID_12_);}
</style>
<g>
	<path class="st0" d="M423.7,338.8c-4.8,5.6-7.2,12.3-15.3,10.6c-6.2-1.2-12.1-2.2-13.8-9.9c-1.4,0.8-2.3,1-2.7,1.5
		c-8.6,11.5-11.5,7.7-21.8,3.5c-3.5-1.4-6-1.8-8.9,0.4c-17.4,13.3-42.2-3.6-43.2-22c-0.2-3.7-0.9-7.5-1.6-12.3
		c-5.4,3.6-9.4,7.9-14.3,9.3c-10.6,3-12.9,9.3-11.5,19.3c1.1,7.4-2.6,10.1-10.3,9.5c-2.2-0.2-4.4-0.4-6.6-0.7
		c-7.4-1.1-11-4.7-10.9-12.1c0.2-13.7,1.1-27.3,1.3-41c0.1-4.5-0.4-9.2-1.9-13.4c-3.6-10.1-1.9-14.3,8.3-17.1
		c11.8-3.3,23.4-3.6,34.9,1.9c9.7,4.6,16.1,11.2,18.3,21.7c0.2,1.1,0.8,2.2,1.7,4.3c2.8-1.8,5.2-3.4,7.6-5
		c7.8-5.2,11.7-4.7,19.1,1.1c4.4,3.5,9.8,5.8,15,8.9c3.9-6.6,7.3-13.6,14.9-11.6c5.6,1.5,10.4,6.2,16,9.8c0.6-1.2,1.5-2.5,2-3.9
		c3.5-8.7,8.2-10.1,15.8-4.8c1,0.7,1.9,1.5,2.8,2.3c2.3,2.2,4.6,4.5,6.8,6.7c2.2-2.3,4.3-4.6,6.5-6.9c2.8-3,5.7-6,10.4-3.8
		c4.7,2.2,8.8,9,7.1,14.1c-1.4,4.6-4.7,8.6-7.1,12.9c-1.4,2.6-4.6,6.3-3.8,7.6c2.1,3.6,5.8,6.4,9.3,9.1c0.2,0.2,4.2-2.9,4.7-4.9
		c3.3-12,8.1-23.1,15.7-33c2.6-3.4,4.4-7.7,9.8-6.4c5.6,1.3,10.7,3.5,12.9,9.7c1.1,3.3,2.9,6.4,4.4,9.6c2.3-2.5,5-4.7,7-7.5
		c7.5-10.3,21.9-18.2,37.4-6.2c6.9,5.3,7.2,5.1,9.8-2.9c1.4-4.2,4.5-5.5,8.5-4.9c6,0.9,10.7,3.6,13.1,9.4c0.5,1.2,1.4,2.3,2.8,4.6
		c1.5-2.4,3-3.9,3.6-5.7c2.3-7.5,7.2-9.8,14.2-6.5c1.6,0.8,3.1,2.2,4.8,2.6c1.6,0.3,4.3,0,4.9-0.9c3.2-5.6,8-5.6,13.2-4.2
		c5.8,1.6,10.4,4.6,10.6,11.5c0.1,1.5,0.6,3,1.3,6.6c3.7-4.3,6.4-7.4,8.9-10.5c7.1-8.8,13.2-8.7,20.4,0.4c0.8,1.1,1.8,2.1,3.1,3.5
		c2.5-2,4.8-3.9,7.2-5.6c11.2-7.6,23.8-7.4,36.3-5.2c7.3,1.3,9.7,7.3,6.9,14.3c-3.3,8.3-1.7,16.5,0.1,25.1c2.3-0.4,4-0.8,6.2-1.2
		c0,8,0,15.9,0,23.1c-3.4,1.3-6.6,2.4-9.7,3.8c-6.7,3.2-17.3-0.6-20.3-7.4c-0.7-1.6-1.3-3.3-2.5-6.6c-2.7,2.9-5.1,4.8-6.6,7.3
		c-2.9,4.8-6.6,6.6-12.2,5c-2.4-0.7-5.2-0.1-7.8-0.1c-4.4,0-8.8,0.3-13.2,0.1c-5.8-0.2-8.6-3.8-9.7-9.1c-0.4-2.3-0.9-4.5-1.4-6.8
		c-0.7-0.3-1.5-0.6-2.2-0.9c-1.9,2.9-4.4,5.5-5.7,8.7c-2.7,6.8-4.4,8.2-11.7,7.2c-2.4-0.3-4.7-1.3-7.1-1.3c-2.2-0.1-4.9,0.1-6.6,1.2
		c-6.9,4.4-15.3,4.4-21.6-1.1c-2.9-2.5-4.7-2.8-7.5-0.1c-5.6,5.4-12,2.5-17.5,0c-4.4-1.9-7.7-2-11.9,0c-10.9,5.2-21.7,5.2-32.7-0.3
		c-1.8-0.9-5,0.3-7.4,1c-3.3,1-6.5,3.2-9.8,3.7c-9.8,1.4-19.6,2.8-29.5,3.2C447.2,352,433.1,353.5,423.7,338.8z M417.7,319.5
		c1.5,1.4,2.4,2,2.9,2.7c4.8,6.5,9.4,13.1,14.3,19.4c3,3.9,6.8,6.2,12.2,3.9c1.3-0.6,3.3,0.4,5,0.7c1.9,0.4,3.9,1.3,5.8,1.1
		c11-1.2,22.1-2.6,33.1-4c5.3-0.7,7.2-3.6,5.8-8.9c-1.6-6-3.1-12.1-4.8-18.1c-2-7.2-3.6-14.5-6.2-21.4c-2-5.4-9-7.5-11.6-3.9
		c-4.7,6.6-9.4,13.4-13.1,20.7c-2.8,5.7-3.9,12.2-6.1,18.3c-2.1,6.1-6.4,7.2-11,3c-3.4-3.1-6.6-6.5-9.6-10
		c-4.8-5.7-4.7-6.6,1.3-10.7c5.4-3.7,10-8.1,9-15.2c-0.4-2.6-2.2-5.7-4.3-7.2c-1-0.7-4.8,1.7-6.6,3.5c-3.9,3.8-7.2,8.2-11.1,11.9
		c-2.9,2.8-5.2,1.7-5.6-2.3c-0.2-2.2,0-4.4-0.3-6.6c-0.5-4.6-3.7-7.1-7.8-6.6c-1.6,0.2-2.8,4.3-3.9,6.7c-0.4,0.8,0.1,2-0.1,3
		c-0.4,2.3-1,4.5-1.5,6.7c-2.2-0.8-4.8-1.1-6.5-2.5c-4.4-3.5-8.1-7.9-12.6-11.1c-1.7-1.3-4.9-0.5-7.5-0.6c0,2.3-0.8,5.3,0.3,6.8
		c2.7,3.7,6,7.1,9.6,9.9c3.6,2.7,4.2,3.8,0.1,6.9c-5.1,3.8-9.8,8.4-13.9,13.3c-3.4,4.1-1,9.8,4.5,13c4.8,2.8,6.7-0.5,9.1-3.9
		c3.6-5.3,7.6-10.4,11.7-15.4c0.8-1,2.7-1.2,4.1-1.7c0.4,1.4,1.3,2.9,1.1,4.3c-0.4,3.6-1.5,7.1-1.9,10.7c-0.5,4.4,3.1,8.6,7.8,9.2
		c5.3,0.6,5.7-3.4,6.1-7.1C416.3,332.1,416.9,326.4,417.7,319.5z M286.1,313.8c11.2,5,12.7,4.9,20.5-2.9c3.4-3.4,6.4-7.3,8.8-11.4
		c5.1-8.8,2.8-18.5-5.4-24.6c-12.3-9.1-25.9-9.2-39.9-5.3c-4.7,1.3-5.9,4.3-2.4,8c3.4,3.6,3.2,7.6,2.9,12.3c-1.1,15-1.7,30.1-2,45.1
		c-0.1,6.1,4.5,8.7,12.2,8.1c5.9-0.5,4-5,4.2-8.2C285.5,328.1,285.7,321.4,286.1,313.8z M621,314.7c-0.5-0.3-1.1-0.6-1.6-0.9
		c-0.2-1.1-0.6-2.3-0.6-3.4c0.1-5.4,0.3-10.9,0.4-16.3c0.1-5.2-3.5-7.1-7.8-7.5c-5.1-0.5-4.3,3.8-4.5,6.8
		c-0.8,11.8-1.5,23.7-2.1,35.6c-0.1,2.2-0.3,5.1,0.9,6.4c2.4,2.4,5.7,4.1,8.8,5.4c1,0.4,3.4-1.1,4.2-2.4
		c5.4-8.2,10.6-16.6,15.9-24.8c1.1-1.7,2.8-3.1,4.2-4.6c0.5,0.2,0.9,0.4,1.4,0.6c-0.1,1.9-0.3,3.8-0.4,5.7c-0.3,7-1,14.1-0.7,21.1
		c0.2,5,7,9.3,11.7,7.9c5.7-1.8,2.8-6,2.4-9.6c-0.7-5.6-1.4-11.2-1.6-16.8c-0.2-6.8,0.7-13.7,0.1-20.5c-0.3-2.9-2.6-6.3-5.1-8
		c-1.1-0.8-5.1,1.7-7.2,3.5c-2.7,2.4-4.6,5.6-7,8.3C628.7,305.7,624.8,310.2,621,314.7z M689.2,317.4c0.6,3.1,1,4.4,1,5.7
		c0.1,4-0.4,8.1,0.1,12.1c0.6,5.4,5.8,9.1,10.9,8c5.9-1.2,3.5-5.7,3.3-9.3c0-0.8-0.2-1.6-0.3-2.4c-1.1-13-3.7-25.9,0.4-38.9
		c0.4-1.1-3-4.8-4.9-5c-6.2-0.7-12.7-1.4-18.7-0.1c-5.5,1.1-11.3,3.8-15.4,7.4c-7.5,6.6-5.3,15.1,4,19.1c1.4,0.6,2.7,1.2,4.8,2.2
		c-4.8,4.3-9.2,7.7-13.1,11.7c-4.2,4.3-3.7,8.1,1,11.7c4.7,3.6,7.2,3.1,10.8-2.2c2-3,4-6,6.3-8.9
		C682.2,325.2,685.3,321.9,689.2,317.4z M592.9,313.3c0.4,0,0.7,0,1.1,0c0-6,0-12.1,0-18.1c0-5.2-4.1-6.4-7.7-6.8
		c-1.3-0.1-3.5,3.4-4.4,5.5c-0.9,2.4-0.5,5.2-1.1,7.7c-1.4,5.7-6.5,4-10.1,4.1c-1.2,0.1-3.1-3.2-3.8-5.3c-0.9-2.6,0.1-6.3-1.4-8.1
		c-2-2.5-5.6-3.7-8.5-5.5c-1.1,2.3-2.9,4.4-3.3,6.8c-0.8,5.6,1.1,11.8-4.1,16.4c-0.5,0.4-0.5,2.2-0.1,2.8c4.3,5,2,10.7,2,16.2
		c0,1.4-0.2,2.8,0,4.2c0.5,4.5,5.8,8.7,10.5,8.1c5.4-0.7,3.2-5.1,3.5-8.1c0.3-4.4,0.4-8.8,0.7-13.2c0.5-6.1,5.1-5.8,9.4-5.8
		c4.9,0,4.8,3.4,4.7,6.7c-0.1,2.8-0.4,5.6-0.4,8.4c0,2.6-0.1,5.3,0.5,7.8c1,4.4,5.9,7.1,10.4,6.2c5.4-1.1,3.1-5.1,3-8.2
		C593.5,327.8,593.2,320.5,592.9,313.3z M515.3,319.1c1.8,0.9,3.1,1.4,4.3,2c6,3,14.7,0.3,20.4-6.3c4.2-4.9,4.2-12.4-0.1-17.8
		c-7.7-9.9-21.8-11.1-31.1-2.5c-11.2,10.4-11.8,28.6-1.4,40.4c7.8,8.9,21,11,30.8,4.5c2-1.3,2.5-4.8,3.8-7.3c-2.4-1-4.7-2.7-7.2-2.9
		c-2.5-0.2-5.1,1.1-7.7,1.5C519.2,332.2,515.2,328.6,515.3,319.1z M368.9,318c0.3-8.8-3.7-16-9.6-18.7c-4.1-1.9-8.2-4.2-11.4-7.2
		c-4-3.7-7.7-3.9-11.9-1.1c-7.9,5.3-12.1,12.7-13,22.1c-1.4,13.6,11.5,30.5,23.9,31.2C358.5,344.9,368.4,333.1,368.9,318z"/>
	<path class="st0" d="M51.3,307.5c0.8-3.5,1.6-7.1,2.4-10.6c1.2-5-0.6-11.5,6.7-13.3c6.3-1.6,13.8,2.5,17.5,9.2c0.6,1,1.2,2,2.4,4.2
		c1.9-7.4,4-13.7,12.7-11.7c6.5,1.6,12.1,4.5,14.3,12.5c18.4-17.4,35.1-17,50.5,5.2c1.8-4.6,3.7-7.6,4-10.7
		c0.5-4.4,0.4-8.8,5.7-10.1c5.4-1.3,10.7-0.8,14.5,3.7c2.9,3.5,5.2,7.6,7.8,11.5c0.5,0.8,1.3,1.4,2.7,2.9c2.6-3.2,5-6.1,7.3-9
		c5.3-6.7,10.4-8.9,16-7c7.5,2.5,10.9,8.2,11.5,16.6c0.8,12,1.9,24,3.8,35.9c2.2,13.7-4.3,17.8-16.5,12.9c-7.6-3.1-14.5-6-22.7-4
		c-1.3,0.3-3,0.1-4.2-0.5c-6.4-3.3-12-4.2-17.5,2.3c-1.5,1.8-6.2,1.8-9.1,1.2c-7.7-1.4-15.1-1-22.8,0.8c-9.1,2.2-17.7-0.5-25.4-5.5
		c-2.8-1.9-4.7-2.1-7.3,0.6c-7.1,7.5-12.6,7.8-22.1,2.4c-2.1-1.2-5.7-2-7.5-1c-4.3,2.5-8.2,2.1-12.8,1.5c-4.1-0.6-8.5,0.4-12.8,0.8
		c-4,0.4-7.9,1.4-11.9,1.5c-10.4,0.1-20.9-0.1-31.4-0.3c-5-0.1-10.1,0.3-15.1-0.4c-4.8-0.7-8.6-3.6-9.7-8.8c-1.1-5.2,0.8-9,4.3-13
		c3.1-3.6,5.3-8.4,6.7-13c4.6-15.7,9.6-31.1,19.3-44.7c3-4.2,5.9-8.8,12-7.1c7.1,2,13.7,5.1,15.6,13.5c2.2,9.4,4.5,18.8,6.9,28.1
		c0.3,1.1,1.1,2,1.7,3C49.9,307.4,50.6,307.5,51.3,307.5z M51.9,336.4c-0.2-0.7-0.6-2.1-1.1-3.4c-2.4-6.5-5.4-12.9-7.2-19.7
		c-3.2-12-5.6-24.3-8.5-36.4c-1.3-5.4-5.7-8.4-10.6-8.4c-2.8,0-6,3.2-8.4,5.5c-1.8,1.7-3.3,4.2-4.1,6.6C6.9,294.7,2.1,309-3,323.2
		c-1,2.7-2.5,5.2-4.2,7.5c-1.5,2.2-5.4,5.2-5,5.9c1.9,3.2,4.5,6.8,7.8,8.3c3,1.4,7.1,0.6,10.7,0.2c11.4-1.3,22.6-4.1,34.1,0.2
		C46,347.5,51.9,342.6,51.9,336.4z M206.8,309.6c0.7,0.2,1.4,0.4,2.2,0.6c0.2,2.2,0.4,4.5,0.4,6.7c0.1,5.4-0.2,10.9,0.1,16.3
		c0.4,6.5,3.9,10.4,10.2,11.9c4.7,1.2,6.7-0.3,6.2-5c-1.4-14.2-2.5-28.5-4.6-42.6c-0.4-3-4.2-6.4-7.2-7.7c-2.1-0.9-6.8,0.5-8.3,2.5
		c-4.2,5.3-7.3,11.5-10.7,17.3c-1.2,2.1-2.3,4.2-4.3,8c-1.3-3.5-1.9-5.1-2.5-6.7c-2.2-5.6-3.9-11.5-6.8-16.7c-1.7-3-5.2-5.4-8.4-6.9
		c-3.2-1.5-5.8-0.1-5.6,4.4c0.1,2.3-0.7,4.7-1.5,6.9c-3.1,9.6-6.6,19-9.5,28.6c-0.9,3-1.4,6.4-0.8,9.5c0.9,4.8,4.8,7,9.4,6.7
		c4.4-0.3,4.8-4.1,5.1-7.6c0.6-6.6,1.4-13.2,2.3-19.8c0.3-1.9,1.5-3.6,2.2-5.4c3.2,5.5,4.8,10.9,6.5,16.2c1,3.1,1.4,6.8,3.5,8.9
		c2.3,2.3,6,3.9,9.2,4.2c1.2,0.1,3.2-4.2,4.2-6.7c1.1-3,1.2-6.4,2.3-9.4C202.3,319,204.7,314.3,206.8,309.6z M99.7,315.1
		c0,0,0.1,0,0.1,0c0-5.8-0.1-11.7,0-17.5c0.1-5.3-3.5-7.1-7.7-7.6c-4.7-0.6-3.9,3.5-4.4,6.3c-0.4,2-0.6,4-0.8,6
		c-0.7,6.4-6.1,4.9-9.8,5.5c-4.2,0.6-4-2.9-4.2-5.8c-0.2-2.6,0.3-5.9-1.1-7.6c-2-2.5-5.5-3.9-8.3-5.7c-1.3,2.1-3.1,4.1-3.7,6.4
		c-1.4,5.6,1.6,12.2-4.1,16.9c-0.5,0.4-0.5,2.2,0,2.7c4.1,4.4,2.1,9.5,2.1,14.4c0,2.4-0.2,4.9,0.2,7.2c0.8,4.1,6.2,7.4,10.2,6.7
		c4.8-0.9,3.4-4.7,3.5-7.7c0.2-4.6,0-9.2,0.6-13.8c0.6-5.7,5.1-6,9.6-5.7c4.8,0.3,4.4,3.9,4.3,7.1c0,2.8-0.5,5.6-0.5,8.4
		c0.1,3-0.5,6.9,1.1,8.7c2.4,2.6,6.5,5.1,9.9,5.1c4.4,0,3.1-4.5,3-7.7C99.7,330,99.7,322.5,99.7,315.1z M122.9,321.1
		c3.8,1.2,7.2,3.3,10.5,3.2c9.8-0.3,18.5-9.8,17.3-18.1c-1.4-9.9-12.5-17.6-22.4-15.5c-11.4,2.4-18.8,10.9-20.2,23.4
		c-1.3,11.7,5.3,24.5,15,28.7c8.2,3.6,16.4,2.7,23.8-1.9c1.8-1.1,3.3-4.9,2.8-6.9c-0.5-1.6-4.1-2.9-6.5-3.2
		c-2.3-0.3-4.7,0.8-7.1,1.3C127.4,334,123.6,331,122.9,321.1z"/>
	<path class="st0" d="M-103.1,305.2c-2.2-13,4.2-26.1,16.1-36.9c9.9-9.1,24.3-10.7,34.8-4.1c7.1,4.5,11.2,11.4,10.9,19.7
		c-0.1,3.2-2.6,7.4-5.4,9.2c-5.2,3.5-11.4,2.8-16.8-0.2c-6.2-3.4-8.1-3.4-9.4,3.5c-1.4,7.2-1.3,14.7-1.4,22.1c0,1.4,1.7,2.9,2.6,4.3
		c1.2-1.1,2.8-2.1,3.6-3.5c4.9-9.4,9.2-11.8,16.1-8.8c7.4,3.3,11,12.5,7.9,20.4c-4.1,10.6-11.1,18.1-23.2,18.1
		c-13.1,0-23.8-4.7-31.4-16.1C-103.9,325.3-102.6,317-103.1,305.2z M-81.3,311.5c0.9-12.7,4.1-22.9,10.4-29.3c1.8-1.8,4.6-2.7,6.9-4
		c1.1,2.2,2,4.6,3.4,6.6c1.5,2,3.3,4.7,5.4,5.1c6.5,1.3,9.9-2.9,8.2-9.4c-4-15.3-22.3-19.9-35.8-9c-17,13.8-21.2,41.6-8.9,59.8
		c5,7.5,12,11.8,21,12.9c10.3,1.3,20.3-5.5,21.7-15.8c0.5-3.7-1.2-8.3-3.4-11.4c-2.8-4-7.3-2.8-9.5,1.7c-1.4,2.9-2.5,6-4.3,8.6
		c-4.2,6.2-8.7,6.1-11.5-0.8C-79.5,321.8-80.1,316.5-81.3,311.5z"/>
	<linearGradient id="SVGID_1_" gradientUnits="userSpaceOnUse" x1="371.5605" y1="318.3409" x2="497.2561" y2="318.3409">
		<stop  offset="0" style="stop-color:#E91AFF"/>
		<stop  offset="1" style="stop-color:#A80B4A"/>
	</linearGradient>
	<path class="st1" d="M417.7,319.5c-0.8,6.9-1.4,12.6-2.1,18.3c-0.5,3.7-0.9,7.7-6.1,7.1c-4.7-0.5-8.3-4.8-7.8-9.2
		c0.4-3.6,1.5-7.1,1.9-10.7c0.2-1.4-0.7-2.9-1.1-4.3c-1.4,0.6-3.3,0.7-4.1,1.7c-4.1,5-8,10.1-11.7,15.4c-2.3,3.4-4.2,6.7-9.1,3.9
		c-5.5-3.1-7.9-8.9-4.5-13c4.1-4.9,8.8-9.5,13.9-13.3c4.1-3,3.5-4.2-0.1-6.9c-3.6-2.8-6.9-6.2-9.6-9.9c-1.1-1.5-0.2-4.5-0.3-6.8
		c2.5,0.1,5.8-0.6,7.5,0.6c4.5,3.3,8.3,7.6,12.6,11.1c1.7,1.4,4.3,1.7,6.5,2.5c0.5-2.2,1.1-4.5,1.5-6.7c0.2-1-0.3-2.2,0.1-3
		c1.1-2.4,2.3-6.5,3.9-6.7c4.1-0.5,7.3,2,7.8,6.6c0.2,2.2,0,4.4,0.3,6.6c0.4,4,2.6,5.1,5.6,2.3c3.9-3.8,7.2-8.2,11.1-11.9
		c1.8-1.7,5.6-4.1,6.6-3.5c2.1,1.5,4,4.6,4.3,7.2c1,7.1-3.6,11.5-9,15.2c-6,4.1-6.2,5-1.3,10.7c3,3.5,6.2,6.9,9.6,10
		c4.6,4.3,8.8,3.1,11-3c2.1-6.1,3.2-12.6,6.1-18.3c3.6-7.3,8.3-14,13.1-20.7c2.6-3.6,9.5-1.6,11.6,3.9c2.6,6.9,4.3,14.3,6.2,21.4
		c1.7,6,3.2,12,4.8,18.1c1.4,5.3-0.4,8.2-5.8,8.9c-11,1.4-22.1,2.8-33.1,4c-1.9,0.2-3.8-0.7-5.8-1.1c-1.7-0.3-3.7-1.3-5-0.7
		c-5.4,2.3-9.2,0-12.2-3.9c-4.9-6.3-9.5-13-14.3-19.4C420,321.5,419.2,320.9,417.7,319.5z M476.8,308.1c-0.8,0.1-1.6,0.1-2.4,0.2
		c-1.9,6.1-4,12.1-5.6,18.2c-0.4,1.7,0.3,5.1,1.2,5.3c2.6,0.7,5.6,0.7,8.1-0.1c1.1-0.3,2.2-3.2,2.1-4.8c-0.2-5-0.9-10-1.7-14.9
		C478.4,310.6,477.4,309.4,476.8,308.1z"/>
	<linearGradient id="SVGID_2_" gradientUnits="userSpaceOnUse" x1="265.6381" y1="305.153" x2="318.0491" y2="305.153">
		<stop  offset="0" style="stop-color:#E91AFF"/>
		<stop  offset="1" style="stop-color:#A80B4A"/>
	</linearGradient>
	<path class="st2" d="M286.1,313.8c-0.4,7.6-0.6,14.3-1.1,21c-0.2,3.3,1.7,7.8-4.2,8.2c-7.8,0.6-12.3-2-12.2-8.1
		c0.3-15,0.9-30.1,2-45.1c0.3-4.7,0.5-8.6-2.9-12.3c-3.5-3.7-2.3-6.7,2.4-8c14-3.9,27.6-3.8,39.9,5.3c8.2,6.1,10.5,15.8,5.4,24.6
		c-2.4,4.1-5.4,8-8.8,11.4C298.8,318.7,297.3,318.8,286.1,313.8z M284.5,298.3c0.6,1.1,1,3.4,2.3,4.3c1,0.6,3.6-0.1,4.8-1
		c2.9-2.1,6-4.4,7.8-7.3c1.8-2.9,2-6.8,3-10.2c-3.5-0.9-7-2.4-10.6-2.5c-1.7,0-4.2,2.3-4.9,4.2C285.6,289.4,285.3,293.5,284.5,298.3
		z"/>
	<linearGradient id="SVGID_3_" gradientUnits="userSpaceOnUse" x1="604.688" y1="315.5511" x2="654.3539" y2="315.5511">
		<stop  offset="0" style="stop-color:#E91AFF"/>
		<stop  offset="1" style="stop-color:#A80B4A"/>
	</linearGradient>
	<path class="st3" d="M621,314.7c3.8-4.5,7.7-9,11.5-13.5c2.3-2.8,4.3-6,7-8.3c2-1.8,6-4.3,7.2-3.5c2.5,1.7,4.8,5.1,5.1,8
		c0.6,6.8-0.3,13.7-0.1,20.5c0.2,5.6,1,11.2,1.6,16.8c0.4,3.6,3.3,7.8-2.4,9.6c-4.6,1.4-11.5-2.9-11.7-7.9c-0.3-7,0.4-14,0.7-21.1
		c0.1-1.9,0.3-3.8,0.4-5.7c-0.5-0.2-0.9-0.4-1.4-0.6c-1.4,1.5-3,2.9-4.2,4.6c-5.4,8.2-10.5,16.6-15.9,24.8c-0.8,1.3-3.3,2.8-4.2,2.4
		c-3.2-1.3-6.4-3-8.8-5.4c-1.2-1.2-1-4.2-0.9-6.4c0.6-11.9,1.3-23.7,2.1-35.6c0.2-3-0.6-7.3,4.5-6.8c4.3,0.4,7.9,2.2,7.8,7.5
		c-0.1,5.4-0.3,10.9-0.4,16.3c0,1.1,0.4,2.3,0.6,3.4C619.9,314.2,620.4,314.4,621,314.7z"/>
	<linearGradient id="SVGID_4_" gradientUnits="userSpaceOnUse" x1="658.4899" y1="315.1537" x2="705.1992" y2="315.1537">
		<stop  offset="0" style="stop-color:#E91AFF"/>
		<stop  offset="1" style="stop-color:#A80B4A"/>
	</linearGradient>
	<path class="st4" d="M689.2,317.4c-3.9,4.5-7,7.7-9.8,11.2c-2.3,2.8-4.3,5.9-6.3,8.9c-3.6,5.3-6.1,5.8-10.8,2.2
		c-4.7-3.6-5.2-7.5-1-11.7c3.9-3.9,8.3-7.4,13.1-11.7c-2.1-1-3.5-1.6-4.8-2.2c-9.2-3.9-11.5-12.5-4-19.1c4.2-3.7,9.9-6.3,15.4-7.4
		c6-1.2,12.5-0.6,18.7,0.1c1.9,0.2,5.3,3.9,4.9,5c-4,13-1.5,25.9-0.4,38.9c0.1,0.8,0.3,1.6,0.3,2.4c0.2,3.6,2.6,8.1-3.3,9.3
		c-5.2,1.1-10.3-2.6-10.9-8c-0.5-4,0-8-0.1-12.1C690.2,321.9,689.8,320.6,689.2,317.4z M680.4,308.4c6.4-0.8,11.1-0.9,11.1-7.3
		c0-3.1-0.4-5.7-4.4-5.7c-5.3-0.1-12.8,4.7-11.8,8.2C676,305.8,679.3,307.3,680.4,308.4z"/>
	<linearGradient id="SVGID_5_" gradientUnits="userSpaceOnUse" x1="549.2182" y1="315.1724" x2="594.4614" y2="315.1724">
		<stop  offset="0" style="stop-color:#E91AFF"/>
		<stop  offset="1" style="stop-color:#A80B4A"/>
	</linearGradient>
	<path class="st5" d="M592.9,313.3c0.3,7.2,0.7,14.5,1,21.7c0.2,3.2,2.4,7.1-3,8.2c-4.5,0.9-9.4-1.8-10.4-6.2
		c-0.6-2.5-0.5-5.2-0.5-7.8c0-2.8,0.3-5.6,0.4-8.4c0.1-3.3,0.2-6.7-4.7-6.7c-4.3,0-8.9-0.3-9.4,5.8c-0.4,4.4-0.4,8.8-0.7,13.2
		c-0.2,3.1,1.9,7.4-3.5,8.1c-4.7,0.6-10-3.5-10.5-8.1c-0.2-1.4,0-2.8,0-4.2c0-5.5,2.3-11.2-2-16.2c-0.5-0.6-0.4-2.4,0.1-2.8
		c5.2-4.6,3.3-10.8,4.1-16.4c0.4-2.4,2.1-4.5,3.3-6.8c2.9,1.8,6.5,3,8.5,5.5c1.5,1.9,0.5,5.5,1.4,8.1c0.7,2.1,2.6,5.4,3.8,5.3
		c3.6-0.2,8.7,1.5,10.1-4.1c0.6-2.5,0.2-5.4,1.1-7.7c0.9-2.2,3-5.7,4.4-5.5c3.7,0.3,7.8,1.6,7.7,6.8c0,6,0,12.1,0,18.1
		C593.6,313.3,593.2,313.3,592.9,313.3z"/>
	<linearGradient id="SVGID_6_" gradientUnits="userSpaceOnUse" x1="500.0674" y1="316.0061" x2="543.1232" y2="316.0061">
		<stop  offset="0" style="stop-color:#E91AFF"/>
		<stop  offset="1" style="stop-color:#A80B4A"/>
	</linearGradient>
	<path class="st6" d="M515.3,319.1c-0.1,9.5,3.9,13.1,11.8,11.7c2.6-0.5,5.2-1.8,7.7-1.5c2.5,0.2,4.8,1.9,7.2,2.9
		c-1.2,2.5-1.8,6-3.8,7.3c-9.8,6.5-22.9,4.3-30.8-4.5c-10.4-11.8-9.7-30,1.4-40.4c9.2-8.6,23.4-7.5,31.1,2.5
		c4.2,5.5,4.2,13,0.1,17.8c-5.7,6.6-14.4,9.3-20.4,6.3C518.4,320.5,517.2,319.9,515.3,319.1z M530.1,301.6c-0.5-0.7-1.2-2.6-2.6-3.3
		c-1.1-0.6-3.7-0.6-4.4,0.2c-2.8,3.3-5.3,7-7.3,10.8c-0.3,0.6,2.5,4,3.9,4C523.8,313.4,529.9,306.6,530.1,301.6z"/>
	<linearGradient id="SVGID_7_" gradientUnits="userSpaceOnUse" x1="322.8779" y1="316.6855" x2="368.9236" y2="316.6855">
		<stop  offset="0" style="stop-color:#E91AFF"/>
		<stop  offset="1" style="stop-color:#A80B4A"/>
	</linearGradient>
	<path class="st7" d="M368.9,318c-0.5,15.1-10.4,26.9-22,26.2c-12.4-0.7-25.3-17.6-23.9-31.2c1-9.3,5.1-16.8,13-22.1
		c4.2-2.8,7.9-2.7,11.9,1.1c3.3,3,7.3,5.4,11.4,7.2C365.2,302.1,369.2,309.2,368.9,318z M336.6,321.2c1.3,7.1,4,12.8,7.6,12
		c3.1-0.7,6.7-3.7,8.2-6.6c3.5-6.9,2.9-14.5,0-21.7c-2-4.9-5.8-5.6-8.4-1.1C340.8,309.3,339,315.4,336.6,321.2z"/>
	<linearGradient id="SVGID_8_" gradientUnits="userSpaceOnUse" x1="-12.25" y1="307.1497" x2="51.8849" y2="307.1497">
		<stop  offset="0" style="stop-color:#E91AFF"/>
		<stop  offset="1" style="stop-color:#A80B4A"/>
	</linearGradient>
	<path class="st8" d="M51.9,336.4c0,6.3-5.9,11.1-11.5,9c-11.5-4.4-22.7-1.6-34.1-0.2c-3.6,0.4-7.7,1.2-10.7-0.2
		c-3.3-1.5-5.9-5.1-7.8-8.3c-0.4-0.7,3.5-3.7,5-5.9c1.6-2.3,3.2-4.9,4.2-7.5c5.1-14.2,9.9-28.4,15-42.6c0.9-2.4,2.3-4.9,4.1-6.6
		c2.5-2.3,5.6-5.5,8.4-5.5c4.9,0,9.3,3.1,10.6,8.4c2.9,12.1,5.3,24.4,8.5,36.4c1.8,6.7,4.8,13.1,7.2,19.7
		C51.3,334.3,51.7,335.7,51.9,336.4z M26.3,293.8c-7.3,4.9-15.8,26.8-13.6,33.8c0.4,1.4,2.2,3,3.6,3.3c10,2.2,14.1-1.6,12.9-11.4
		c0-0.2-0.1-0.4-0.1-0.6C28.2,310.8,27.3,302.7,26.3,293.8z"/>
	<linearGradient id="SVGID_9_" gradientUnits="userSpaceOnUse" x1="155.435" y1="316.1469" x2="226.0019" y2="316.1469">
		<stop  offset="0" style="stop-color:#E91AFF"/>
		<stop  offset="1" style="stop-color:#A80B4A"/>
	</linearGradient>
	<path class="st9" d="M206.8,309.6c-2.1,4.8-4.5,9.4-6.3,14.3c-1.1,3-1.2,6.4-2.3,9.4c-1,2.5-2.9,6.8-4.2,6.7
		c-3.2-0.3-7-1.9-9.2-4.2c-2-2.1-2.5-5.8-3.5-8.9c-1.7-5.3-3.3-10.7-6.5-16.2c-0.8,1.8-1.9,3.5-2.2,5.4c-1,6.6-1.7,13.2-2.3,19.8
		c-0.3,3.6-0.7,7.3-5.1,7.6c-4.7,0.3-8.6-1.8-9.4-6.7c-0.5-3-0.1-6.5,0.8-9.5c3-9.6,6.4-19.1,9.5-28.6c0.7-2.2,1.6-4.7,1.5-6.9
		c-0.2-4.5,2.4-5.8,5.6-4.4c3.2,1.5,6.7,3.9,8.4,6.9c3,5.2,4.6,11.1,6.8,16.7c0.6,1.6,1.2,3.2,2.5,6.7c2-3.8,3.1-5.9,4.3-8
		c3.5-5.9,6.6-12,10.7-17.3c1.5-1.9,6.2-3.4,8.3-2.5c3,1.3,6.7,4.7,7.2,7.7c2.1,14.1,3.2,28.4,4.6,42.6c0.5,4.7-1.5,6.2-6.2,5
		c-6.3-1.6-9.8-5.4-10.2-11.9c-0.3-5.4,0-10.9-0.1-16.3c0-2.2-0.3-4.5-0.4-6.7C208.3,309.9,207.5,309.8,206.8,309.6z"/>
	<linearGradient id="SVGID_10_" gradientUnits="userSpaceOnUse" x1="55.2883" y1="316.8752" x2="100.0024" y2="316.8752">
		<stop  offset="0" style="stop-color:#E91AFF"/>
		<stop  offset="1" style="stop-color:#A80B4A"/>
	</linearGradient>
	<path class="st10" d="M99.7,315.1c0,7.4-0.1,14.8,0,22.3c0,3.1,1.4,7.7-3,7.7c-3.4,0-7.5-2.5-9.9-5.1c-1.6-1.8-1-5.7-1.1-8.7
		c-0.1-2.8,0.4-5.6,0.5-8.4c0-3.2,0.5-6.8-4.3-7.1c-4.5-0.3-8.9,0-9.6,5.7c-0.5,4.6-0.4,9.2-0.6,13.8c-0.1,3,1.2,6.8-3.5,7.7
		c-4.1,0.8-9.4-2.5-10.2-6.7c-0.5-2.3-0.2-4.8-0.2-7.2c0-4.9,1.9-10-2.1-14.4c-0.5-0.5-0.5-2.4,0-2.7c5.7-4.7,2.8-11.3,4.1-16.9
		c0.6-2.3,2.4-4.3,3.7-6.4c2.8,1.8,6.3,3.2,8.3,5.7c1.4,1.7,0.9,5,1.1,7.6c0.2,2.8,0,6.4,4.2,5.8c3.8-0.6,9.2,0.9,9.8-5.5
		c0.2-2,0.5-4,0.8-6c0.5-2.8-0.3-6.9,4.4-6.3c4.2,0.5,7.8,2.3,7.7,7.6c-0.1,5.8,0,11.7,0,17.5C99.8,315.1,99.8,315.1,99.7,315.1z"/>
	<linearGradient id="SVGID_11_" gradientUnits="userSpaceOnUse" x1="108.0322" y1="317.7202" x2="150.9097" y2="317.7202">
		<stop  offset="0" style="stop-color:#E91AFF"/>
		<stop  offset="1" style="stop-color:#A80B4A"/>
	</linearGradient>
	<path class="st11" d="M122.9,321.1c0.7,9.9,4.5,12.9,13.2,11.1c2.4-0.5,4.8-1.6,7.1-1.3c2.4,0.3,6,1.6,6.5,3.2c0.6,2-1,5.8-2.8,6.9
		c-7.4,4.5-15.6,5.4-23.8,1.9c-9.7-4.2-16.4-17-15-28.7c1.4-12.5,8.8-21,20.2-23.4c9.9-2,21,5.7,22.4,15.5
		c1.2,8.3-7.5,17.9-17.3,18.1C130.2,324.5,126.8,322.4,122.9,321.1z M137.9,304.1c-0.3-0.7-0.7-2.9-1.9-3.5
		c-1.5-0.7-4.6-0.8-5.4,0.1c-2.7,3.1-4.9,6.7-6.7,10.3c-0.3,0.6,2.4,3.9,3.8,4C131.8,315.1,137.3,309.2,137.9,304.1z"/>
	<linearGradient id="SVGID_12_" gradientUnits="userSpaceOnUse" x1="-98.6291" y1="304.9066" x2="-46.415" y2="304.9066">
		<stop  offset="0" style="stop-color:#E91AFF"/>
		<stop  offset="1" style="stop-color:#A80B4A"/>
	</linearGradient>
	<path class="st12" d="M-81.3,311.5c1.2,5,1.7,10.3,3.7,15c2.8,6.8,7.3,7,11.5,0.8c1.8-2.6,2.9-5.7,4.3-8.6c2.2-4.5,6.7-5.7,9.5-1.7
		c2.2,3.1,3.9,7.8,3.4,11.4c-1.3,10.2-11.3,17-21.7,15.8c-9-1.1-16-5.4-21-12.9c-12.3-18.2-8.1-46,8.9-59.8
		c13.5-10.9,31.7-6.3,35.8,9c1.7,6.5-1.7,10.7-8.2,9.4c-2.1-0.4-3.9-3.1-5.4-5.1c-1.5-2-2.3-4.4-3.4-6.6c-2.3,1.3-5.1,2.2-6.9,4
		C-77.2,288.6-80.4,298.8-81.3,311.5z"/>
</g>
</svg>
